<?xml version="1.0" encoding="utf-8"?>
<!-- Generator: Adobe Illustrator 16.0.0, SVG Export Plug-In . SVG Version: 6.00 Build 0)  -->
<!DOCTYPE svg PUBLIC "-//W3C//DTD SVG 1.1//EN" "http://www.w3.org/Graphics/SVG/1.1/DTD/svg11.dtd">
<svg version="1.1" id="Layer_1" xmlns="http://www.w3.org/2000/svg" xmlns:xlink="http://www.w3.org/1999/xlink" x="0px" y="0px"
	 width="40px" height="40px" viewBox="-0.5 -0.5 40 40" enable-background="new -0.5 -0.5 40 40" xml:space="preserve">
<g>
	<path fill="#FFFFFF" d="M35.442,10.935c-0.3,1.234-1.212,1.918-2.253,2.467c-1.441,0.76-3.005,1.126-4.61,1.317
		c-2.276,0.271-4.538,0.182-6.772-0.353c-1.125-0.269-2.199-0.667-3.193-1.272c-1.276-0.778-1.879-1.863-1.712-3.384
		c0.1-0.906,0.581-1.535,1.253-2.059c1.096-0.853,2.375-1.316,3.707-1.617c3.102-0.699,6.198-0.668,9.273,0.171
		c0.894,0.244,1.75,0.586,2.537,1.082c0.848,0.532,1.545,1.185,1.771,2.214C35.442,9.979,35.442,10.457,35.442,10.935z"/>
	<path fill="#FFFFFF" d="M3.538,16.605c0.295-1.236,1.206-1.922,2.247-2.471c1.441-0.76,3.005-1.121,4.609-1.32
		s3.21-0.184,4.814-0.002c0.05,0.006,0.099,0.021,0.162,0.035c0,2.987,0,5.963,0,8.971c-0.419,0.043-0.838,0.106-1.258,0.127
		c-2.18,0.11-4.336-0.029-6.438-0.666c-1.149-0.349-2.241-0.814-3.157-1.622c-0.497-0.438-0.829-0.973-0.979-1.619
		C3.538,17.561,3.538,17.083,3.538,16.605z"/>
	<path fill="#FFFFFF" d="M35.442,20.344c-0.409,1.479-1.58,2.183-2.856,2.73c-2.365,1.013-4.861,1.264-7.406,1.148
		c-1.867-0.085-3.69-0.398-5.417-1.143c-0.892-0.385-1.726-0.865-2.337-1.652c-0.285-0.368-0.484-0.771-0.501-1.248
		c-0.022-0.617-0.082-1.237,0.155-1.85c1.269,1.862,3.214,2.475,5.232,2.894c3.025,0.628,6.045,0.549,9.021-0.321
		c1.232-0.361,2.401-0.869,3.326-1.806c0.215-0.219,0.387-0.481,0.604-0.753c0.062,0.172,0.121,0.339,0.182,0.506
		C35.442,19.347,35.442,19.846,35.442,20.344z"/>
	<path fill="#FFFFFF" d="M35.442,25.268c-0.298,1.234-1.209,1.918-2.249,2.467c-1.432,0.757-2.984,1.123-4.578,1.316
		c-2.295,0.276-4.577,0.189-6.832-0.354c-1.113-0.269-2.178-0.662-3.162-1.264c-1.272-0.775-1.921-1.855-1.708-3.377
		c0.036-0.254,0.084-0.506,0.142-0.846c0.142,0.207,0.227,0.342,0.321,0.469c0.61,0.818,1.459,1.313,2.371,1.708
		c1.598,0.69,3.284,1.005,5.012,1.126c2.023,0.143,4.025,0.013,5.989-0.505c0.679-0.179,1.349-0.413,1.993-0.692
		c1.012-0.437,1.919-1.029,2.51-2.074c0.074,0.229,0.133,0.409,0.192,0.592C35.442,24.312,35.442,24.789,35.442,25.268z"/>
	<path fill="#FFFFFF" d="M35.442,15.608c-0.288,1.251-1.21,1.934-2.259,2.489c-1.384,0.733-2.884,1.097-4.424,1.293
		c-2.071,0.265-4.142,0.23-6.197-0.167c-1.383-0.267-2.708-0.688-3.925-1.422c-1.305-0.787-1.941-1.889-1.72-3.429
		c0.035-0.242,0.085-0.481,0.163-0.731c0.402,0.655,0.941,1.144,1.573,1.535c1.19,0.736,2.503,1.153,3.865,1.405
		c2.94,0.543,5.865,0.481,8.749-0.355c1.245-0.36,2.428-0.862,3.365-1.799c0.225-0.225,0.404-0.496,0.627-0.773
		c0.06,0.171,0.121,0.346,0.183,0.521C35.442,14.653,35.442,15.131,35.442,15.608z"/>
	<path fill="#FFFFFF" d="M35.442,29.94c-0.286,1.252-1.208,1.935-2.255,2.489c-1.384,0.735-2.885,1.098-4.424,1.295
		c-2.082,0.269-4.163,0.23-6.229-0.17c-1.381-0.27-2.718-0.672-3.917-1.437c-0.72-0.459-1.383-0.997-1.61-1.862
		c-0.196-0.748-0.166-1.516,0.058-2.3c0.214,0.274,0.386,0.532,0.596,0.753c0.763,0.804,1.731,1.277,2.755,1.639
		c2.266,0.802,4.61,1.008,6.993,0.871c1.75-0.1,3.46-0.405,5.084-1.092c0.944-0.4,1.824-0.898,2.463-1.736
		c0.098-0.128,0.181-0.268,0.299-0.444c0.07,0.214,0.129,0.388,0.187,0.562C35.442,28.984,35.442,29.463,35.442,29.94z"/>
	<path fill="#FFFFFF" d="M3.538,25.952c0.06-0.161,0.12-0.321,0.186-0.5c1.144,1.732,2.926,2.335,4.771,2.796
		c2.187,0.548,4.41,0.601,6.643,0.353c0.07-0.008,0.141-0.009,0.245-0.017c0.018,0.867-0.078,1.737,0.361,2.569
		c-0.443,0.054-0.828,0.114-1.215,0.144c-2.559,0.197-5.078,0.02-7.513-0.852C5.912,30.051,4.856,29.55,4.116,28.6
		c-0.259-0.332-0.389-0.765-0.579-1.151C3.538,26.949,3.538,26.451,3.538,25.952z"/>
	<path fill="#FFFFFF" d="M3.538,21.279c0.061-0.171,0.121-0.342,0.189-0.533c0.923,1.482,2.377,2.109,3.909,2.578
		c2.396,0.732,4.851,0.857,7.332,0.596c0.072-0.008,0.145-0.016,0.217-0.021c0.051-0.003,0.103-0.001,0.178-0.001
		c0,0.861,0,1.717,0,2.609c-0.327,0.037-0.662,0.087-0.999,0.109c-2.731,0.174-5.412-0.037-7.969-1.11
		c-0.848-0.356-1.656-0.802-2.23-1.54c-0.272-0.348-0.423-0.791-0.628-1.192C3.538,22.275,3.538,21.777,3.538,21.279z"/>
</g>
</svg>
