<?xml version="1.0" encoding="utf-8"?>
<!-- Generator: Adobe Illustrator 16.0.0, SVG Export Plug-In . SVG Version: 6.00 Build 0)  -->
<!DOCTYPE svg PUBLIC "-//W3C//DTD SVG 1.1//EN" "http://www.w3.org/Graphics/SVG/1.1/DTD/svg11.dtd">
<svg version="1.1" id="Layer_1" xmlns="http://www.w3.org/2000/svg" xmlns:xlink="http://www.w3.org/1999/xlink" x="0px" y="0px"
	 width="40px" height="40px" viewBox="-1 -1 40 40" enable-background="new -1 -1 40 40" xml:space="preserve">
<g display="none">
	<path display="inline" fill="none" d="M31.697,29.199c-0.005-0.232-0.113-0.334-0.348-0.348c-0.25-0.014-0.476-0.089-0.674-0.246
		c-0.475-0.373-0.536-1.112-0.128-1.559c0.03-0.033,0.062-0.064,0.091-0.099c0.099-0.112,0.104-0.251,0.012-0.368
		c-0.223-0.283-0.477-0.537-0.755-0.764c-0.134-0.109-0.272-0.098-0.411,0.035c-0.275,0.264-0.602,0.373-0.977,0.314
		c-0.492-0.076-0.859-0.488-0.893-0.99c-0.004-0.059-0.003-0.115-0.007-0.174c-0.009-0.125-0.104-0.228-0.229-0.247
		c-0.091-0.014-0.182-0.024-0.273-0.036c-0.199,0-0.398,0-0.597,0c-0.065,0.008-0.132,0.017-0.198,0.024
		c-0.044,0.005-0.082,0.015-0.115,0.027c0.152,1.081,0.287,2.165,0.422,3.249c0.077-0.008,0.155-0.014,0.235-0.01
		c0.913,0.037,1.606,0.779,1.595,1.674c-0.034,0.83-0.635,1.484-1.408,1.593c0.043,0.286,0.086,0.571,0.127,0.858
		c0,0.223,0,0.445,0,0.668c-0.138,0.572-0.302,1.141-0.805,1.508c-0.083,0.061-0.169,0.117-0.256,0.172
		c0.06,0.039,0.141,0.059,0.244,0.062c0.047,0.001,0.094,0.014,0.141,0.021c0.198,0,0.396,0,0.596,0
		c0.057-0.008,0.113-0.018,0.17-0.021c0.22-0.02,0.313-0.106,0.32-0.326c0.01-0.307,0.111-0.57,0.33-0.784
		c0.398-0.39,1.063-0.401,1.479-0.03c0.033,0.029,0.065,0.061,0.099,0.09c0.108,0.094,0.249,0.102,0.361,0.014
		c0.291-0.229,0.553-0.486,0.784-0.775c0.102-0.127,0.089-0.27-0.037-0.396c-0.248-0.248-0.366-0.545-0.336-0.895
		c0.045-0.557,0.52-0.979,1.101-0.986c0.222-0.003,0.324-0.082,0.335-0.304C31.705,29.833,31.703,29.516,31.697,29.199z"/>
	<g display="inline">
		<path fill="#FFFFFF" d="M19.909,29.637c0-3.5,2.593-6.395,5.963-6.869c-0.569-2.399-2.843-4.258-5.317-4.306
			c-2.957-0.058-5.915-0.062-8.871,0c-2.717,0.056-5.083,2.2-5.475,4.894c-0.322,2.213-0.575,4.436-0.864,6.652
			c-0.092,0.71-0.201,1.418-0.302,2.127c0,0.242,0,0.486,0,0.729c0.042,0.143,0.083,0.285,0.127,0.426
			c0.251,0.797,0.823,1.271,1.569,1.574c0.044,0.018,0.084,0.045,0.126,0.066c5.166,0,10.332,0,15.498,0
			C20.863,33.657,19.909,31.759,19.909,29.637z"/>
	</g>
	<path display="inline" fill="#FFFFFF" d="M21.008,14.108c2.74-3.468,1.326-8.447-2.831-9.933c-0.471-0.168-0.975-0.245-1.464-0.364
		c-0.405,0-0.811,0-1.215,0c-0.087,0.021-0.173,0.05-0.261,0.063c-0.779,0.112-1.52,0.344-2.202,0.736
		c-3.621,2.08-4.339,6.788-1.511,9.859C14.068,17.231,18.68,17.056,21.008,14.108z"/>
	<path display="inline" fill="#FFFFFF" d="M25.164,29.59c-0.035,0.902,0.676,1.666,1.584,1.702c0.1,0.004,0.196-0.003,0.291-0.017
		c0.772-0.107,1.373-0.763,1.408-1.592c0.012-0.895-0.682-1.638-1.596-1.675c-0.08-0.003-0.158,0.002-0.234,0.011
		C25.838,28.107,25.197,28.773,25.164,29.59z"/>
	<path display="inline" fill="#FFFFFF" d="M26.803,23.677c-0.258,0-0.513,0.019-0.764,0.05c-2.955,0.375-5.24,2.896-5.24,5.955
		c0,2.258,1.246,4.223,3.088,5.248c0.864,0.48,1.857,0.756,2.916,0.756c3.316,0,6.004-2.688,6.004-6.004
		C32.807,26.365,30.119,23.677,26.803,23.677z M31.356,30.453c-0.581,0.006-1.056,0.43-1.102,0.985
		c-0.029,0.351,0.089,0.646,0.337,0.896c0.125,0.127,0.139,0.27,0.037,0.396c-0.232,0.289-0.494,0.548-0.785,0.776
		c-0.111,0.087-0.253,0.079-0.36-0.014c-0.034-0.029-0.066-0.061-0.1-0.09c-0.415-0.373-1.08-0.36-1.478,0.029
		c-0.219,0.215-0.32,0.479-0.33,0.784c-0.008,0.22-0.102,0.308-0.32,0.326c-0.057,0.005-0.113,0.015-0.17,0.022
		c-0.199,0-0.398,0-0.596,0c-0.048-0.008-0.095-0.02-0.141-0.021c-0.104-0.002-0.185-0.022-0.244-0.061
		c-0.09-0.058-0.131-0.158-0.124-0.317c0.001-0.019-0.001-0.038-0.003-0.058c-0.034-0.568-0.504-1.01-1.072-1.005
		c-0.311,0.002-0.578,0.114-0.803,0.333c-0.128,0.127-0.269,0.14-0.395,0.038c-0.286-0.229-0.543-0.489-0.77-0.776
		c-0.075-0.097-0.082-0.229-0.016-0.323c0.035-0.05,0.079-0.093,0.121-0.138c0.41-0.449,0.35-1.188-0.129-1.565
		c-0.192-0.151-0.408-0.231-0.654-0.241c-0.247-0.009-0.354-0.115-0.367-0.359c-0.004-0.047-0.014-0.094-0.021-0.141
		c0-0.199,0-0.398,0-0.597c0.012-0.085,0.021-0.171,0.034-0.256c0.026-0.16,0.109-0.235,0.269-0.249
		c0.058-0.004,0.114-0.007,0.173-0.014c0.598-0.073,1.045-0.547,0.988-1.176c-0.024-0.277-0.148-0.505-0.343-0.7
		c-0.12-0.12-0.128-0.265-0.028-0.39c0.231-0.288,0.494-0.547,0.785-0.773c0.111-0.088,0.253-0.078,0.359,0.016
		c0.037,0.031,0.072,0.064,0.107,0.096c0.416,0.365,1.077,0.348,1.471-0.039c0.224-0.22,0.322-0.49,0.33-0.803
		c0.005-0.147,0.062-0.234,0.176-0.275c0.033-0.014,0.071-0.022,0.115-0.027c0.066-0.008,0.132-0.018,0.198-0.025
		c0.198,0,0.397,0,0.596,0c0.093,0.013,0.184,0.023,0.274,0.037c0.125,0.02,0.22,0.121,0.229,0.248
		c0.005,0.057,0.004,0.115,0.008,0.172c0.033,0.502,0.4,0.914,0.893,0.99c0.375,0.059,0.701-0.051,0.976-0.314
		c0.14-0.133,0.278-0.145,0.411-0.035c0.279,0.228,0.532,0.482,0.756,0.765c0.092,0.117,0.086,0.256-0.012,0.368
		c-0.029,0.033-0.061,0.066-0.092,0.1c-0.407,0.445-0.346,1.184,0.129,1.559c0.198,0.156,0.424,0.231,0.674,0.246
		c0.234,0.013,0.342,0.114,0.348,0.347c0.006,0.316,0.008,0.634-0.007,0.95C31.68,30.37,31.578,30.45,31.356,30.453z"/>
</g>
<g>
	<path fill="#FFFFFF" d="M25.429,20.936c-0.09-0.221-0.194-0.438-0.321-0.648c-1.24-2.058-3.085-3.053-5.471-3.061
		c-2.642-0.008-5.284-0.004-7.926,0c-0.31,0-0.624,0.007-0.93,0.049c-2.857,0.394-4.925,2.477-5.292,5.33
		c-0.372,2.896-0.745,5.792-1.099,8.689c-0.101,0.832,0.095,1.602,0.768,2.157c0.319,0.264,0.709,0.441,1.067,0.658
		c4.525,0,9.051,0,13.576,0c-0.94-1.366-1.493-3.021-1.493-4.804C18.308,25.086,21.393,21.587,25.429,20.936z"/>
	<path fill="#FFFFFF" d="M20.693,12.809c2.803-3.548,1.355-8.642-2.897-10.162c-0.483-0.173-0.999-0.251-1.499-0.373
		c-0.415,0-0.83,0-1.244,0c-0.089,0.022-0.176,0.052-0.267,0.064c-0.796,0.115-1.555,0.353-2.252,0.753
		c-3.705,2.128-4.44,6.945-1.545,10.086C13.593,16.003,18.31,15.824,20.693,12.809z"/>
</g>
<g>
	<path fill="#FFFFFF" d="M20.295,29.611c0-0.271,0-0.544,0-0.816c0.016-0.117,0.028-0.234,0.047-0.35
		c0.035-0.221,0.148-0.323,0.367-0.342c0.079-0.006,0.158-0.01,0.236-0.02c0.819-0.1,1.432-0.748,1.355-1.61
		c-0.033-0.38-0.204-0.691-0.471-0.959c-0.163-0.164-0.176-0.362-0.038-0.532c0.317-0.396,0.676-0.75,1.075-1.062
		c0.152-0.12,0.347-0.107,0.494,0.021c0.049,0.044,0.096,0.09,0.146,0.133c0.569,0.5,1.476,0.477,2.015-0.053
		c0.307-0.303,0.441-0.674,0.453-1.101c0.008-0.263,0.138-0.386,0.398-0.415c0.091-0.01,0.181-0.023,0.271-0.034
		c0.272,0,0.545,0,0.816,0c0.126,0.017,0.251,0.031,0.376,0.051c0.173,0.026,0.301,0.166,0.313,0.339
		c0.006,0.078,0.004,0.158,0.01,0.236c0.047,0.688,0.548,1.253,1.223,1.357c0.514,0.08,0.961-0.07,1.338-0.431
		c0.189-0.183,0.379-0.198,0.562-0.049c0.384,0.312,0.729,0.659,1.035,1.048c0.126,0.16,0.119,0.35-0.016,0.504
		c-0.041,0.047-0.084,0.09-0.125,0.136c-0.559,0.61-0.475,1.623,0.176,2.136c0.271,0.214,0.58,0.316,0.923,0.336
		c0.32,0.02,0.469,0.158,0.476,0.477c0.01,0.434,0.012,0.867-0.009,1.301c-0.014,0.303-0.153,0.412-0.458,0.416
		c-0.797,0.01-1.445,0.589-1.508,1.352c-0.041,0.479,0.121,0.885,0.46,1.227c0.173,0.174,0.19,0.369,0.052,0.542
		c-0.316,0.396-0.676,0.749-1.074,1.062c-0.154,0.121-0.348,0.109-0.495-0.018c-0.047-0.039-0.091-0.082-0.137-0.123
		c-0.567-0.51-1.479-0.492-2.024,0.041c-0.299,0.294-0.439,0.654-0.453,1.074c-0.009,0.301-0.138,0.422-0.438,0.447
		c-0.078,0.006-0.156,0.02-0.233,0.029c-0.272,0-0.544,0-0.817,0c-0.063-0.01-0.127-0.025-0.191-0.027
		c-0.355-0.012-0.521-0.156-0.504-0.52c0-0.025-0.002-0.053-0.004-0.078c-0.047-0.779-0.689-1.383-1.469-1.377
		c-0.427,0.002-0.793,0.156-1.1,0.457c-0.176,0.172-0.369,0.19-0.541,0.052c-0.393-0.314-0.742-0.671-1.054-1.065
		c-0.104-0.131-0.112-0.312-0.021-0.441c0.048-0.068,0.108-0.127,0.165-0.188c0.562-0.615,0.479-1.628-0.176-2.146
		c-0.264-0.208-0.561-0.317-0.896-0.331c-0.339-0.012-0.484-0.158-0.504-0.492C20.318,29.74,20.305,29.676,20.295,29.611z
		 M29.299,29.276c0.017-1.228-0.934-2.244-2.184-2.295c-1.209-0.05-2.264,0.935-2.312,2.165c-0.049,1.236,0.924,2.283,2.169,2.332
		C28.215,31.528,29.247,30.551,29.299,29.276z"/>
</g>
</svg>
