<?xml version="1.0" encoding="utf-8"?>
<!-- Generator: Adobe Illustrator 16.0.0, SVG Export Plug-In . SVG Version: 6.00 Build 0)  -->
<!DOCTYPE svg PUBLIC "-//W3C//DTD SVG 1.1//EN" "http://www.w3.org/Graphics/SVG/1.1/DTD/svg11.dtd">
<svg version="1.1" id="Layer_1" xmlns="http://www.w3.org/2000/svg" xmlns:xlink="http://www.w3.org/1999/xlink" x="0px" y="0px"
	 width="40px" height="40px" viewBox="-1 -1 40 40" enable-background="new -1 -1 40 40" xml:space="preserve">
<path fill="#FFFFFF" d="M29.102,34.186c-2.373,0-4.748,0-7.126,0c-0.13-0.01-0.267-0.036-0.404-0.036
	c-2.145-0.01-4.29-0.016-6.437-0.026c-2.488-0.013-4.978-0.027-7.465-0.038c-0.371,0-0.746-0.055-0.931-0.393
	c-0.145-0.267-0.232-0.605-0.232-0.911c-0.01-9.766-0.005-19.534-0.013-29.302c0-0.631,0.203-1.065,0.797-1.293
	c5.353,0,10.709,0,16.062,0c0,1.656,0.025,3.315-0.015,4.963c-0.02,0.859,0.495,1.271,1.258,1.261
	c1.615-0.024,3.227-0.005,4.841-0.005c0.121,0,0.241,0,0.394,0c0,0.158,0,0.267,0,0.382c0,8.027,0,16.061,0.008,24.088
	C29.834,33.468,29.67,33.926,29.102,34.186z M18.008,13.064c1.271,0,2.538,0,3.811,0c0.872,0,1.746,0.011,2.621-0.005
	c0.682-0.011,1.116-0.66,0.897-1.294c-0.148-0.414-0.515-0.638-1.071-0.638c-4.165,0-8.329,0-12.494,0
	c-0.096,0-0.188-0.003-0.282,0.008c-0.493,0.063-0.855,0.47-0.861,0.958c-0.002,0.56,0.422,0.971,1.032,0.977
	C13.777,13.07,15.892,13.064,18.008,13.064z M18.008,25.632c1.166,0,2.333,0,3.498,0c0.98,0,1.96,0.011,2.937-0.006
	c0.679-0.013,1.113-0.66,0.891-1.296c-0.148-0.417-0.516-0.641-1.069-0.641c-4.165,0-8.329,0-12.495,0c-0.093,0-0.188,0-0.282,0.013
	c-0.495,0.063-0.855,0.471-0.858,0.959c-0.002,0.56,0.422,0.971,1.034,0.971C13.78,25.632,15.895,25.632,18.008,25.632z
	 M18.008,19.422c-1.428,0-2.852,0-4.281,0c-0.718,0-1.435-0.009-2.154,0.008c-0.526,0.011-0.902,0.396-0.934,0.903
	c-0.03,0.502,0.31,0.925,0.824,1.009c0.111,0.022,0.229,0.022,0.343,0.022c4.144,0,8.288,0,12.432-0.005
	c0.144,0,0.291-0.012,0.431-0.044c0.577-0.145,0.885-0.756,0.648-1.302c-0.187-0.428-0.534-0.597-0.999-0.597
	C22.213,19.425,20.111,19.422,18.008,19.422z M17.987,17.079c2.039,0,4.083,0,6.123,0c0.145,0,0.291,0.002,0.436-0.015
	c0.559-0.06,0.941-0.594,0.823-1.143c-0.108-0.505-0.484-0.786-1.083-0.786c-4.186-0.003-8.371,0-12.557,0
	c-0.115,0.003-0.229,0.014-0.341,0.041c-0.486,0.104-0.799,0.54-0.749,1.037c0.056,0.542,0.456,0.867,1.098,0.867
	C13.823,17.081,15.907,17.079,17.987,17.079z"/>
<path fill="#FFFFFF" d="M29.429,6.734c-1.533,0-2.962,0-4.422,0c0-1.381,0-2.762,0-4.193C26.48,3.937,27.922,5.306,29.429,6.734z"/>
</svg>
