<?xml version="1.0" encoding="utf-8"?>
<!-- Generator: Adobe Illustrator 16.0.0, SVG Export Plug-In . SVG Version: 6.00 Build 0)  -->
<!DOCTYPE svg PUBLIC "-//W3C//DTD SVG 1.1//EN" "http://www.w3.org/Graphics/SVG/1.1/DTD/svg11.dtd">
<svg version="1.1" id="Layer_1" xmlns="http://www.w3.org/2000/svg" xmlns:xlink="http://www.w3.org/1999/xlink" x="0px" y="0px"
	 width="40px" height="40px" viewBox="0 0 200 200" enable-background="new 0 0 200 200" xml:space="preserve">
<g>
	<path fill-rule="evenodd" clip-rule="evenodd" fill="#FFFFFF" d="M180.119,129.116c-0.719,2.486-1.787,4.75-4.008,6.283
		c-1.791,1.236-3.801,1.527-5.93,1.526c-32.744-0.016-65.488-0.011-98.233-0.011c-13.668,0-27.338,0-41.008,0
		c-6.011,0-8.407-1.711-10.355-7.391c-0.049-0.143-0.135-0.272-0.204-0.408c0-33.071,0-66.143,0-99.213
		c0.294-0.822,0.552-1.659,0.891-2.463c1.194-2.831,3.508-4.36,6.285-5.337c48.463,0,96.926,0,145.387,0
		c1.264,0.672,2.611,1.222,3.771,2.042c1.955,1.385,2.729,3.565,3.404,5.757C180.119,62.974,180.119,96.045,180.119,129.116z
		 M31.547,107.872c53.288,0,39.532,0,138.371,0c0-24.931,0-49.776,0-74.602c-46.184,0-92.241,0-138.371,0
		C31.547,58.15,31.547,82.966,31.547,107.872z"/>
	<path fill-rule="evenodd" clip-rule="evenodd" fill="#FFFFFF" d="M85.274,142.926c10.07,0,19.89,0,29.952,0
		c0,0.574,0,1.118,0,1.663c0,4.211-0.018,8.422,0.004,12.632c0.031,6.419,4.236,10.6,10.68,10.63
		c2.961,0.016,5.924-0.015,8.887,0.009c3.172,0.026,5.402,2.135,5.377,5.033c-0.025,2.833-2.23,4.935-5.311,4.938
		c-23.08,0.014-46.159,0.014-69.237-0.001c-3.077-0.002-5.28-2.113-5.301-4.949c-0.019-2.896,2.212-4.996,5.388-5.021
		c3.015-0.023,6.03,0.016,9.044-0.01c6.249-0.051,10.463-4.247,10.51-10.485c0.031-4.262,0.006-8.523,0.006-12.786
		C85.274,144.071,85.274,143.564,85.274,142.926z"/>
</g>
</svg>
