<?xml version="1.0" encoding="utf-8"?>
<!-- Generator: Adobe Illustrator 16.0.0, SVG Export Plug-In . SVG Version: 6.00 Build 0)  -->
<!DOCTYPE svg PUBLIC "-//W3C//DTD SVG 1.1//EN" "http://www.w3.org/Graphics/SVG/1.1/DTD/svg11.dtd">
<svg version="1.1" id="Layer_1" xmlns="http://www.w3.org/2000/svg" xmlns:xlink="http://www.w3.org/1999/xlink" x="0px" y="0px"
	 width="40px" height="40px" viewBox="0 0 200 200" enable-background="new 0 0 200 200" xml:space="preserve">
<rect x="104.362" y="43.689" transform="matrix(0.698 -0.7161 0.7161 0.698 -11.121 113.5913)" fill="#FFFFFF" width="49.502" height="52.583"/>
<path fill="#FFFFFF" d="M146.219,115.846c-3.52,3.616-8.707,4.275-11.586,1.475l0,0c-2.879-2.803-2.359-8.004,1.158-11.621
	l29.258-30.075c3.518-3.615,8.705-4.277,11.586-1.476l0,0c2.879,2.801,2.359,8.006-1.158,11.622L146.219,115.846z"/>
<path fill="#FFFFFF" d="M93.021,64.259c-3.633,3.503-8.839,3.998-11.628,1.105l0,0c-2.789-2.89-2.105-8.074,1.527-11.578
	l30.199-29.128c3.632-3.502,8.837-3.999,11.626-1.107l0,0c2.791,2.892,2.105,8.078-1.527,11.581L93.021,64.259z"/>
<path fill="#FFFFFF" d="M24.228,154.472l75.207-66.6l11.374,11.374l-66.704,75.105C44.105,174.351,19.719,179.882,24.228,154.472"/>
<polygon fill="#FFFFFF" points="87.139,149.622 87.139,159.187 75.664,159.187 75.664,179.132 178.496,179.132 178.496,159.459
	165.217,159.459 165.217,149.622 "/>
</svg>
