<?xml version="1.0" encoding="utf-8"?>
<!-- Generator: Adobe Illustrator 16.0.0, SVG Export Plug-In . SVG Version: 6.00 Build 0)  -->
<!DOCTYPE svg PUBLIC "-//W3C//DTD SVG 1.1//EN" "http://www.w3.org/Graphics/SVG/1.1/DTD/svg11.dtd">
<svg version="1.1" id="Layer_1" xmlns="http://www.w3.org/2000/svg" xmlns:xlink="http://www.w3.org/1999/xlink" x="0px" y="0px"
	 width="40px" height="40px" viewBox="0 0 200 200" enable-background="new 0 0 200 200" xml:space="preserve">
<g>
	<path fill-rule="evenodd" clip-rule="evenodd" fill="#FFFFFF" d="M32.411,84.669c-2.275-1.878-4.491-0.271-6.518-0.626
		c-3.074-0.54-3.132,2.257-4.38,4.063c-6.842-2.445-13.684-4.89-20.871-7.458c0.753-0.384,1.168-0.645,1.618-0.817
		c32.068-12.34,64.137-24.68,96.226-36.964c0.861-0.33,2.066-0.341,2.924-0.013c32.09,12.282,64.158,24.621,96.229,36.958
		c0.455,0.175,0.881,0.424,1.678,0.812c-5.135,1.848-9.938,3.506-14.688,5.297c-27.396,10.328-55.588,18.184-83.502,26.897
		c-0.631,0.196-1.419,0.264-2.037,0.074c-20.287-6.237-40.562-12.512-60.835-18.789c-0.669-0.207-1.312-0.504-2.381-0.92
		c3.109-1.029,5.795-2.022,8.545-2.786c1.519-0.421,2.342-1.201,2.511-2.967c-4.406,0.986-8.75,1.932-13.07,2.979
		c-0.337,0.082-0.693,0.858-0.721,1.331c-0.829,14.363-1.633,28.727-2.381,43.094c-0.061,1.158-0.503,1.737-1.494,2.185
		c-5.56,2.516-11.075,2.231-16.514-0.302c-0.523-0.243-1.071-1.202-1.023-1.781c0.362-4.436,0.486-8.942,1.407-13.272
		c2.189-10.291,6.025-20.061,10.287-29.659c0.341-0.769,0.891-1.504,1.009-2.303c0.438-2.961,2.32-4.027,5.044-4.255
		C30.35,85.37,31.201,84.999,32.411,84.669z"/>
	<path fill-rule="evenodd" clip-rule="evenodd" fill="#FFFFFF" d="M159.422,101.677c0,1.44,0,2.659,0,3.879
		c0,7.969-0.225,15.947,0.068,23.905c0.248,6.746-2.746,11.523-7.9,15.303c-7.689,5.637-16.541,8.514-25.732,10.337
		c-19.402,3.849-38.761,3.602-57.933-1.501c-8.053-2.143-15.743-5.188-22.04-10.947c-3.578-3.272-5.433-7.254-5.381-12.191
		c0.094-8.875,0.026-17.753,0.026-26.63c0-0.638,0-1.275,0-2.149c0.816,0.215,1.428,0.354,2.027,0.539
		c18.483,5.683,36.959,11.391,55.461,17.01c1.199,0.364,2.702,0.365,3.9,0.001c18.503-5.618,36.979-11.325,55.462-17.008
		C157.982,102.039,158.598,101.896,159.422,101.677z"/>
</g>
</svg>
